<?xml version="1.0" standalone="no"?>
<svg viewBox="0 0 200 200" xmlns="http://www.w3.org/2000/svg">
  <path fill="#E8DAFF" d="M30,-53.3C40.2,-46.1,50.7,-40.7,54.5,-32.1C58.2,-23.6,55.3,-11.8,55.5,0.1C55.7,12,59.1,24,55.7,33.4C52.4,42.7,42.4,49.4,32,58.2C21.6,67,10.8,78,-1.4,80.4C-13.6,82.9,-27.3,76.9,-38.3,68.4C-49.4,60,-57.8,49.1,-63.3,37.3C-68.7,25.5,-71.2,12.7,-69.3,1.1C-67.4,-10.5,-61,-21,-56.4,-34.4C-51.8,-47.7,-49,-63.8,-39.9,-71.6C-30.8,-79.3,-15.4,-78.7,-2.7,-74C9.9,-69.3,19.8,-60.4,30,-53.3Z" transform="translate(100 100)" />
</svg>
