<?xml version="1.0" standalone="no"?>
<svg viewBox="0 0 200 200" xmlns="http://www.w3.org/2000/svg">
  <path fill="#A7F0BA" d="M40.8,-67.5C51.4,-64.6,57.4,-50.6,66.3,-37.5C75.1,-24.4,86.8,-12.2,86.9,0.1C87.1,12.3,75.6,24.7,64,33C52.4,41.3,40.6,45.6,29.9,51.7C19.2,57.8,9.6,65.8,-2.8,70.6C-15.2,75.5,-30.4,77.2,-42.1,71.7C-53.8,66.2,-61.9,53.3,-68,40.1C-74.2,27,-78.3,13.5,-81,-1.6C-83.7,-16.7,-85.1,-33.3,-76.5,-42.1C-67.8,-50.9,-49.1,-51.8,-34.7,-52.5C-20.3,-53.1,-10.1,-53.6,2.5,-57.9C15.1,-62.2,30.3,-70.4,40.8,-67.5Z" transform="translate(100 100)" />
</svg>
